<?xml version="1.0" standalone="no"?>
<!DOCTYPE svg PUBLIC "-//W3C//DTD SVG 20010904//EN"
 "http://www.w3.org/TR/2001/REC-SVG-20010904/DTD/svg10.dtd">
<svg version="1.0" xmlns="http://www.w3.org/2000/svg"
 width="256.000000pt" height="256.000000pt" viewBox="0 0 256.000000 256.000000"
 preserveAspectRatio="xMidYMid meet">
<metadata>
Created by potrace 1.14, written by Peter Selinger 2001-2017
</metadata>
<g transform="translate(0.000000,256.000000) scale(0.100000,-0.100000)"
fill="#000000" stroke="none">
<path d="M1487 2516 c-5 -11 -3 -15 5 -10 6 4 8 3 5 -4 -4 -5 -15 -9 -25 -7
-9 1 -22 -2 -29 -7 -13 -10 -28 6 -19 21 4 5 -3 7 -14 4 -11 -3 -23 -10 -26
-15 -3 -5 -12 -4 -20 3 -10 8 -14 8 -14 0 0 -6 4 -11 8 -11 5 0 9 -7 9 -15 0
-19 -2 -19 -21 1 -15 14 -16 13 -16 -6 0 -12 -4 -18 -10 -15 -6 4 -7 12 -4 18
5 9 4 9 -6 0 -7 -6 -20 -9 -29 -6 -13 4 -14 3 -1 -5 8 -6 18 -8 24 -5 5 3 6 1
2 -5 -7 -11 -36 -9 -59 4 -9 6 -9 5 0 -8 7 -8 10 -18 6 -22 -4 -4 -15 3 -24
15 -14 19 -16 20 -14 2 0 -10 5 -24 9 -31 4 -7 5 -16 2 -19 -3 -4 -6 -2 -6 4
0 6 -7 14 -16 17 -11 4 -15 2 -11 -7 3 -8 -3 -14 -15 -14 -17 -2 -18 1 -7 15
11 14 10 14 -7 -1 -16 -15 -17 -19 -4 -28 11 -7 8 -8 -12 -5 -15 3 -31 0 -34
-6 -4 -6 -2 -8 3 -5 6 4 13 1 16 -7 4 -10 0 -12 -14 -9 -11 3 -19 2 -17 -3 2
-5 -5 -20 -15 -34 -9 -13 -17 -20 -17 -16 0 5 7 18 17 28 20 22 1 24 -22 2 -9
-10 -13 -24 -10 -38 5 -17 4 -18 -4 -6 -10 14 -16 7 -12 -14 1 -5 -5 -3 -14 4
-13 11 -14 10 -9 -5 6 -14 4 -16 -6 -10 -9 5 -11 4 -6 -4 4 -6 12 -9 17 -6 5
4 9 1 9 -6 0 -6 -8 -9 -17 -7 -13 4 -19 -2 -20 -19 -5 -49 -6 -53 -18 -43 -15
12 -25 3 -18 -15 2 -8 12 -12 21 -9 9 3 6 -1 -8 -8 -14 -6 -26 -13 -28 -14 -2
-1 -5 -10 -6 -19 -1 -9 -9 -21 -17 -27 -11 -8 -11 -9 3 -5 9 4 19 -1 22 -10 4
-10 2 -13 -7 -10 -9 3 -12 -4 -11 -25 2 -29 2 -29 -19 -11 -12 9 -16 11 -9 3
6 -8 12 -18 12 -23 0 -4 -6 -5 -12 0 -7 4 -5 -6 6 -21 16 -25 16 -28 2 -23 -9
4 -16 4 -16 1 0 -2 10 -9 23 -14 18 -7 19 -9 4 -9 -11 -1 -17 -6 -14 -13 2 -7
10 -12 16 -10 7 1 10 -2 6 -8 -3 -6 -10 -8 -15 -5 -5 3 -12 1 -15 -5 -4 -6 -3
-10 2 -9 21 4 25 -2 8 -14 -14 -11 -15 -16 -5 -22 8 -5 11 -4 7 2 -3 5 0 10 8
10 9 0 11 -5 7 -11 -14 -18 -12 -57 1 -49 7 4 6 -1 -2 -11 -18 -22 -23 -60 -6
-46 7 5 14 9 16 7 2 -1 -2 4 -10 11 -13 10 -13 12 2 12 9 0 18 -4 18 -10 1 -5
2 -16 3 -22 3 -19 -15 -39 -27 -31 -6 3 -7 1 -3 -5 5 -9 13 -9 26 -2 28 15 34
12 14 -7 -16 -17 -16 -18 -1 -21 10 -2 15 -8 11 -13 -3 -5 -10 -6 -16 -3 -6 4
-5 -2 1 -15 7 -12 9 -26 6 -31 -7 -12 25 -29 45 -23 8 2 4 -6 -10 -18 -14 -12
-18 -20 -9 -16 9 3 23 0 30 -6 11 -10 11 -9 1 4 -9 12 -9 16 2 16 17 0 15 -19
-4 -43 -8 -11 -10 -16 -6 -12 5 4 15 3 23 -3 10 -9 17 -8 30 2 15 13 15 12 5
-8 -16 -30 -15 -38 3 -23 13 10 18 11 28 1 9 -10 8 -11 -5 -6 -11 4 -18 2 -18
-4 0 -6 5 -11 11 -11 6 0 8 -7 5 -17 -6 -16 -6 -16 12 0 10 9 22 14 25 10 9
-9 9 -40 0 -46 -5 -2 -3 -2 4 -1 7 2 15 -1 18 -7 4 -5 11 -6 17 -3 7 5 9 1 5
-9 -4 -11 -2 -14 8 -10 8 3 12 10 8 16 -3 6 -1 7 6 3 6 -4 9 -12 6 -17 -4 -5
1 -9 10 -9 9 0 13 5 10 10 -3 6 -1 10 4 10 6 0 11 -5 11 -11 0 -5 5 -7 12 -3
7 4 8 3 4 -5 -4 -6 -11 -9 -15 -7 -4 3 -13 0 -21 -5 -13 -9 -13 -10 0 -8 8 1
22 1 30 0 13 -1 13 -3 0 -12 -13 -9 -12 -10 2 -5 10 3 20 1 23 -4 3 -5 15 -6
29 0 12 4 29 4 36 0 8 -5 18 -6 24 -3 5 3 6 1 2 -5 -5 -9 -13 -9 -26 -2 -13 7
-21 7 -26 -2 -4 -7 -4 -10 1 -6 4 4 16 3 26 -2 13 -7 22 -6 34 6 15 15 15 14
10 -9 -4 -14 -2 -28 4 -31 6 -4 9 -1 5 7 -8 23 12 29 27 9 13 -16 12 -16 -6
-2 -16 11 -17 11 -8 0 17 -19 43 -22 36 -4 -4 10 0 12 11 8 9 -3 14 -10 11
-14 -3 -5 -1 -12 5 -15 6 -4 10 -3 9 2 -3 20 2 27 11 13 8 -12 10 -12 10 5 0
16 2 17 9 6 11 -18 51 -25 51 -10 0 6 7 8 15 5 9 -3 18 1 21 9 8 19 21 19 21
0 0 -8 -4 -12 -9 -9 -4 3 -8 0 -8 -5 0 -13 13 -14 24 -3 12 12 30 9 44 -8 10
-13 11 -12 5 5 -6 18 -5 19 13 5 17 -13 18 -13 8 0 -5 8 -9 21 -8 28 1 6 2 17
3 24 2 20 12 1 16 -32 5 -35 18 -58 15 -25 -4 38 0 65 10 65 5 0 7 -8 4 -17
-3 -10 2 -7 11 7 9 14 14 17 11 8 -3 -10 -1 -20 5 -23 5 -4 8 -1 7 7 -2 9 6
12 24 11 23 -2 26 0 15 11 -6 8 -15 12 -19 9 -4 -2 -5 3 -2 12 6 14 8 14 19
-1 11 -16 14 -16 42 4 17 12 34 18 38 14 5 -4 5 -1 1 6 -6 10 -11 10 -22 1
-12 -10 -13 -9 -8 5 8 20 18 20 38 0 9 -8 16 -12 16 -7 0 5 -5 14 -11 20 -8 8
-7 13 2 18 7 5 10 4 6 -1 -3 -6 3 -16 15 -23 16 -10 19 -10 12 1 -5 7 -10 22
-11 32 -3 19 -3 19 18 0 22 -19 22 -19 10 3 -15 30 -14 41 2 18 11 -14 16 -15
22 -5 6 9 4 11 -6 6 -8 -4 -6 -1 5 8 10 8 18 26 19 40 0 22 1 23 14 10 16 -16
24 -18 22 -6 -3 19 2 33 10 27 6 -3 6 7 1 26 -5 18 -7 29 -3 25 3 -3 13 0 22
7 14 11 14 10 3 -5 -8 -10 -12 -23 -9 -30 3 -8 6 -6 6 5 1 10 5 16 10 13 5 -4
8 1 7 10 -1 8 -9 20 -17 25 -9 6 -3 7 19 4 19 -2 30 0 26 6 -3 5 -9 7 -14 4
-4 -3 -10 2 -13 9 -4 10 0 14 13 11 13 -3 17 1 13 11 -3 7 -10 11 -17 7 -7 -4
-7 -1 1 9 7 8 9 19 5 23 -4 5 -2 5 4 2 7 -4 15 0 18 9 5 12 2 15 -9 10 -9 -3
-13 -2 -10 4 3 6 15 10 26 10 10 0 19 5 19 11 0 5 -4 8 -9 5 -5 -3 -8 5 -8 19
0 14 3 22 8 19 5 -3 9 1 9 10 0 8 -6 16 -12 19 -10 3 -10 8 1 18 12 12 13 12
6 -1 -8 -13 -7 -13 8 -1 18 15 23 26 7 16 -5 -3 -10 1 -10 10 0 10 -5 13 -12
9 -10 -6 -10 -5 -1 8 7 8 9 19 5 23 -4 5 -2 5 4 2 7 -4 14 0 17 8 4 9 1 12 -8
9 -10 -4 -12 0 -8 15 3 12 10 21 17 21 6 0 4 5 -4 10 -13 9 -13 11 0 21 12 8
9 9 -10 4 -20 -6 -23 -5 -12 6 14 16 16 33 2 24 -5 -3 -10 -1 -10 4 0 6 6 11
13 11 9 0 9 2 -1 9 -7 4 -14 17 -15 29 -1 16 -4 18 -14 10 -11 -8 -12 -7 -6 8
3 10 11 22 16 25 5 3 1 9 -8 12 -9 4 -13 3 -10 -2 3 -5 1 -12 -4 -15 -11 -7
-9 13 3 33 6 9 5 12 0 8 -6 -3 -15 3 -22 13 -7 13 -8 21 -2 25 6 4 9 1 8 -6
-2 -6 4 -14 12 -16 12 -4 12 -3 2 5 -8 5 -14 13 -15 18 -1 5 -10 7 -19 6 -17
-3 -23 12 -19 47 2 8 -2 10 -11 5 -11 -6 -11 -5 0 8 10 13 10 17 -3 21 -8 4
-13 12 -11 19 1 7 1 10 -1 6 -3 -5 -9 -8 -14 -8 -6 0 -7 5 -4 10 3 6 1 10 -4
10 -6 0 -11 -4 -11 -10 0 -5 -5 -10 -12 -10 -6 0 -1 11 13 26 19 21 20 24 5
18 -15 -6 -17 -4 -11 7 7 11 5 11 -10 -1 -14 -11 -17 -12 -10 -1 6 11 1 13
-23 9 -21 -3 -29 -1 -25 8 3 7 12 10 21 6 15 -5 15 -4 -1 12 -9 10 -14 23 -10
29 4 7 0 7 -9 -1 -9 -8 -14 -21 -12 -30 5 -15 4 -15 -6 1 -6 9 -8 22 -5 27 3
6 -1 7 -10 4 -11 -5 -14 -2 -9 12 3 11 2 15 -3 9 -4 -5 -17 -17 -28 -25 -11
-8 -17 -10 -13 -6 10 12 -11 38 -24 30 -5 -3 -12 3 -15 14 -3 11 -12 23 -20
27 -13 4 -14 3 -3 -10 11 -13 10 -14 -4 -9 -9 3 -16 10 -16 15 0 4 -6 6 -14 3
-8 -3 -17 0 -22 7 -4 7 -3 10 2 6 6 -3 16 -1 24 4 13 9 13 10 0 6 -8 -2 -24 3
-35 12 -18 15 -19 15 -7 0 10 -14 10 -18 -3 -23 -9 -3 -13 -2 -10 4 3 6 1 10
-5 10 -6 0 -9 4 -6 8 6 11 -25 9 -43 -3 -10 -6 -12 -4 -6 5 6 10 4 12 -11 6
-44 -18 -48 -18 -29 -2 19 16 18 16 -16 2 -35 -13 -37 -13 -46 7 -9 19 -10 19
-16 3z m-77 -33 c0 -15 -2 -16 -10 -3 -8 12 -10 12 -10 1 0 -8 -3 -12 -6 -8
-8 7 4 27 17 27 5 0 9 -8 9 -17z m231 0 c13 -16 12 -17 -3 -4 -10 7 -18 15
-18 17 0 8 8 3 21 -13z m364 -213 c3 -5 1 -10 -4 -10 -6 0 -11 5 -11 10 0 6 2
10 4 10 3 0 8 -4 11 -10z m-1040 -160 c3 -5 -1 -10 -10 -10 -9 0 -13 5 -10 10
3 6 8 10 10 10 2 0 7 -4 10 -10z m0 -38 c-3 -3 -11 0 -18 7 -9 10 -8 11 6 5
10 -3 15 -9 12 -12z m1132 -34 c-3 -8 -6 -5 -6 6 -1 11 2 17 5 13 3 -3 4 -12
1 -19z m-1167 -52 c0 -3 -4 -8 -10 -11 -5 -3 -10 -1 -10 4 0 6 5 11 10 11 6 0
10 -2 10 -4z m56 -383 c1 -6 -4 -9 -13 -6 -11 4 -11 8 -3 13 9 5 9 9 1 14 -6
4 -11 13 -11 19 1 13 23 -21 26 -40z m1031 -49 c-3 -3 -12 -4 -19 -1 -8 3 -5
6 6 6 11 1 17 -2 13 -5z m-967 -30 c0 -8 -19 -13 -24 -6 -3 5 1 9 9 9 8 0 15
-2 15 -3z m112 -108 c7 4 8 2 4 -5 -9 -13 -26 -5 -25 12 0 9 2 8 6 -1 2 -6 10
-9 15 -6z m668 -40 c0 -3 -4 -8 -10 -11 -5 -3 -10 -1 -10 4 0 6 5 11 10 11 6
0 10 -2 10 -4z m-170 -74 c0 -5 -7 -9 -15 -9 -8 0 -15 4 -15 9 0 4 7 8 15 8 8
0 15 -4 15 -8z m-125 -12 c3 -6 -1 -7 -9 -4 -18 7 -21 14 -7 14 6 0 13 -4 16
-10z"/>
<path d="M1439 2503 c-13 -17 -13 -17 6 -3 11 8 22 16 24 17 2 2 0 3 -6 3 -6
0 -17 -8 -24 -17z"/>
<path d="M1786 2454 c-8 -22 -4 -25 11 -9 7 8 9 16 4 19 -5 3 -12 -1 -15 -10z"/>
<path d="M1800 2436 c0 -2 7 -9 15 -16 9 -7 15 -8 15 -2 0 5 -7 12 -15 16 -8
3 -15 4 -15 2z"/>
<path d="M1020 2300 c-9 -6 -10 -10 -3 -10 6 0 15 5 18 10 8 12 4 12 -15 0z"/>
<path d="M2036 2232 c-2 -4 -1 -14 4 -22 7 -11 9 -9 7 8 -1 24 -3 26 -11 14z"/>
<path d="M958 2193 c7 -3 16 -2 19 1 4 3 -2 6 -13 5 -11 0 -14 -3 -6 -6z"/>
<path d="M895 1809 c-4 -6 -5 -12 -2 -15 2 -3 7 2 10 11 7 17 1 20 -8 4z"/>
<path d="M2106 1683 c-6 -14 -5 -15 5 -6 7 7 10 15 7 18 -3 3 -9 -2 -12 -12z"/>
<path d="M533 1432 c0 -9 5 -24 11 -32 9 -13 9 -13 -6 -2 -9 8 -22 11 -27 8
-5 -4 -13 -2 -16 4 -4 6 -1 9 6 8 6 -2 14 4 16 12 3 10 2 11 -4 4 -4 -6 -16
-10 -25 -9 -16 3 -16 1 -3 -19 14 -21 14 -22 -20 -18 -19 2 -35 9 -35 15 0 6
-7 2 -15 -9 -13 -16 -16 -17 -25 -4 -7 10 -10 11 -11 3 -1 -7 -2 -19 -3 -25
-1 -7 3 -16 9 -21 5 -4 -1 -6 -15 -5 -18 2 -24 -1 -22 -12 2 -8 0 -11 -5 -7
-4 5 -8 13 -8 18 0 5 -4 8 -10 7 -5 -2 -9 -7 -7 -12 2 -5 -4 -6 -12 -3 -10 4
-13 -1 -12 -18 2 -17 -1 -22 -12 -17 -11 4 -13 2 -7 -9 7 -11 6 -12 -7 -2 -18
15 -32 5 -17 -13 8 -10 5 -11 -12 -7 -17 5 -20 3 -14 -8 7 -12 6 -12 -7 -1
-13 10 -18 10 -24 1 -4 -8 -3 -9 4 -5 7 4 12 2 12 -3 0 -6 -6 -11 -12 -11 -9
0 -8 -3 2 -10 13 -8 13 -11 1 -22 -10 -10 -12 -10 -7 0 4 7 1 12 -9 12 -12 0
-14 -4 -5 -19 11 -22 4 -30 -23 -26 -9 2 -15 0 -12 -5 3 -5 2 -10 -2 -13 -5
-2 -3 -2 4 -1 20 5 24 -13 6 -27 -12 -10 -14 -10 -9 -1 4 6 3 12 -2 12 -6 0
-13 -7 -16 -16 -9 -23 -8 -26 7 -18 8 5 8 2 -2 -9 -14 -17 -26 -24 -17 -9 3 5
-2 9 -10 9 -11 0 -8 -7 8 -26 17 -19 18 -22 4 -11 -18 14 -19 13 -13 -4 6 -16
5 -17 -8 -6 -13 11 -14 10 -9 -4 4 -10 1 -16 -7 -16 -8 -1 -2 -8 14 -16 15 -8
27 -17 27 -20 0 -3 -4 -3 -9 0 -5 3 -14 -1 -21 -10 -7 -8 -18 -13 -24 -11 -7
3 -12 -4 -12 -14 0 -14 5 -17 20 -13 16 5 17 4 5 -9 -8 -8 -18 -14 -24 -14 -5
1 -8 -5 -6 -13 3 -8 4 -37 3 -63 -2 -36 0 -47 9 -41 7 4 9 3 5 -4 -3 -5 0 -13
6 -16 7 -3 2 -3 -12 1 -20 5 -23 3 -14 -8 14 -18 26 -51 16 -45 -4 2 -8 -7 -9
-21 -1 -19 1 -22 8 -12 6 11 9 8 9 -9 0 -15 -4 -21 -12 -16 -7 5 -8 3 -3 -6 6
-10 11 -9 23 6 13 18 14 18 7 -5 -5 -15 -4 -21 3 -17 6 3 14 1 18 -5 4 -8 3
-9 -4 -5 -7 4 -12 1 -12 -6 0 -10 -2 -10 -9 1 -6 9 -11 10 -15 2 -7 -11 6 -15
33 -11 13 2 13 0 0 -16 -8 -11 -9 -15 -1 -10 9 5 12 -3 12 -29 0 -20 4 -34 9
-31 5 3 12 -1 15 -10 3 -8 10 -12 16 -9 7 4 7 -2 1 -18 -10 -26 -6 -37 13 -37
6 0 4 5 -4 10 -8 5 -10 10 -4 10 16 0 23 -10 17 -26 -3 -8 -10 -11 -16 -7 -6
3 -7 1 -3 -6 4 -6 12 -9 17 -5 15 9 48 -35 44 -58 -3 -11 -1 -18 2 -14 4 3 17
-1 31 -10 13 -9 21 -11 18 -5 -4 6 0 11 9 11 13 0 14 -4 4 -22 -12 -22 -11
-22 6 -8 17 14 18 13 12 -4 -6 -16 -5 -17 8 -6 13 11 14 10 8 -6 -6 -17 -5
-18 12 -4 17 14 18 13 11 -4 -7 -20 -7 -20 16 0 12 10 17 12 11 4 -9 -12 -8
-20 3 -34 8 -11 14 -14 14 -8 0 14 26 16 35 2 3 -5 0 -8 -7 -7 -7 2 -10 2 -5
0 4 -3 4 -10 1 -15 -5 -7 -2 -8 6 -3 19 12 60 13 67 1 4 -5 0 -6 -8 -1 -8 5
-11 4 -6 0 4 -5 24 -9 45 -10 29 -1 36 -5 34 -18 -2 -11 2 -15 13 -11 8 3 12
11 8 17 -4 6 -1 7 6 3 7 -5 10 -14 7 -22 -3 -8 0 -11 9 -7 8 3 12 9 9 14 -3 5
0 9 5 9 6 0 11 -4 11 -10 0 -5 7 -7 15 -4 8 4 12 11 8 17 -3 6 -1 7 6 3 9 -6
9 -11 0 -22 -6 -8 -9 -17 -5 -21 3 -3 6 -2 6 4 0 6 17 13 38 16 20 2 44 6 52
8 8 2 14 -2 12 -9 -1 -8 2 -11 8 -7 6 3 8 10 5 15 -3 4 4 10 16 13 16 4 18 3
8 -9 -8 -10 -9 -14 0 -14 6 0 14 7 17 15 4 8 10 15 16 15 5 0 6 -4 3 -10 -3
-5 -1 -10 4 -10 6 0 11 9 11 20 0 11 3 20 8 21 4 0 17 2 30 5 13 2 21 1 18 -4
-2 -4 4 -8 14 -8 14 0 16 3 8 13 -6 8 -8 16 -4 20 3 3 6 2 6 -4 0 -6 7 -14 16
-17 15 -6 15 -4 3 10 -13 16 -12 16 7 6 21 -11 34 -7 34 10 0 4 -5 8 -11 8 -5
0 -7 -5 -3 -12 5 -7 3 -8 -5 -3 -19 11 0 24 41 27 20 1 34 6 32 10 -3 5 -11 5
-17 2 -7 -4 -8 -3 -4 2 4 4 18 8 30 9 12 0 35 10 51 23 16 12 24 22 18 22 -6
0 -10 9 -9 19 0 11 5 17 9 15 5 -3 6 -9 3 -14 -3 -5 4 -8 14 -7 19 1 19 3 5
18 -14 16 -13 19 10 34 14 10 24 21 21 25 -3 4 2 13 10 20 7 6 11 18 8 26 -3
8 0 14 7 14 6 0 8 -5 5 -10 -3 -6 1 -10 10 -10 13 0 14 4 4 23 -9 18 -9 20 2
9 7 -6 16 -12 20 -12 12 0 3 31 -12 41 -10 7 -7 8 11 3 23 -6 24 -6 10 11 -8
11 -10 16 -3 12 7 -4 14 1 18 14 6 16 9 18 15 8 5 -7 6 -17 3 -23 -3 -5 -1 -6
5 -2 17 11 -4 47 -23 40 -8 -4 -13 -9 -10 -13 2 -4 -2 -8 -10 -8 -13 0 -13 3
1 18 9 10 13 23 9 29 -4 7 1 6 14 -2 12 -7 21 -16 21 -20 0 -5 8 -8 18 -8 9 0
13 -4 7 -8 -16 -12 -16 -32 0 -38 14 -6 13 -8 -2 -21 -10 -8 -13 -12 -6 -9 6
4 14 2 17 -3 4 -5 -5 -8 -19 -7 -13 2 -22 -1 -19 -5 3 -5 13 -9 23 -9 20 0 48
-27 38 -37 -4 -3 -2 -12 5 -20 8 -11 7 -12 -5 -7 -9 3 -15 15 -14 26 1 12 -5
23 -13 25 -11 3 -12 2 -2 -5 7 -5 10 -16 7 -24 -3 -8 1 -22 9 -31 9 -9 16 -28
16 -42 0 -19 4 -26 14 -22 10 4 12 0 9 -14 -5 -17 5 -24 29 -20 4 0 5 -6 2
-14 -4 -8 -1 -15 6 -15 6 0 8 -5 4 -11 -5 -8 -13 -4 -27 12 l-19 24 15 -25 c8
-15 23 -25 35 -24 12 1 20 -4 19 -10 -1 -6 7 -10 18 -8 18 2 18 2 2 -8 -9 -6
-17 -16 -17 -22 0 -7 4 -7 13 1 10 8 14 7 15 -4 1 -8 3 -22 4 -30 1 -8 5 -12
10 -9 4 3 8 -3 9 -13 0 -14 2 -14 9 5 5 12 12 22 15 22 4 0 4 -3 2 -7 -6 -10
19 -34 26 -26 4 3 4 -7 2 -23 -2 -16 -2 -23 1 -16 7 15 34 16 34 1 0 -6 9 -9
20 -6 11 3 23 0 27 -5 3 -7 1 -8 -5 -4 -7 4 -12 2 -12 -3 0 -10 22 -16 43 -12
5 1 6 -3 2 -9 -3 -6 -11 -8 -16 -5 -5 4 -9 2 -9 -3 0 -6 7 -13 16 -16 8 -3 12
-2 9 4 -3 5 12 8 34 7 24 -1 35 -4 28 -9 -8 -5 -4 -8 11 -8 12 0 22 -4 22 -10
0 -5 7 -10 16 -10 13 0 14 3 5 13 -8 10 -7 14 4 14 7 0 14 -3 13 -6 -2 -20 4
-31 18 -31 9 0 13 5 9 13 -4 6 0 4 8 -5 11 -14 16 -15 27 -5 8 8 11 8 7 1 -9
-15 45 -26 58 -12 7 8 6 9 -2 4 -7 -4 -21 -3 -30 3 -13 7 -8 9 22 8 22 -1 45
-9 52 -17 10 -13 12 -13 18 3 7 17 8 17 21 0 13 -17 14 -17 7 1 -5 15 -3 17 8
10 20 -12 59 -13 66 -1 3 6 1 7 -5 3 -7 -4 -12 -3 -12 2 0 6 7 12 15 16 8 3
13 11 11 18 -1 7 -1 10 1 5 3 -4 9 -5 14 -1 5 3 9 0 9 -5 0 -6 -4 -11 -9 -11
-6 0 -9 -9 -8 -20 1 -18 12 -18 12 0 0 5 9 16 20 25 11 9 14 13 6 9 -9 -4 -12
-3 -8 3 4 6 19 8 34 5 25 -5 26 -3 15 11 -11 13 -10 15 7 10 12 -3 19 -9 16
-12 -2 -4 2 -8 10 -8 10 0 11 6 4 25 -5 14 -7 27 -4 30 3 3 5 0 5 -8 0 -8 4
-9 13 -3 17 14 59 14 51 1 -4 -7 -2 -8 5 -4 9 6 9 11 1 21 -8 10 -8 15 1 21 8
4 9 3 5 -4 -4 -7 -3 -12 3 -12 5 0 13 9 16 20 3 11 11 20 16 20 6 0 5 -9 -2
-22 -9 -17 -3 -14 24 11 31 29 40 51 21 51 -3 0 -2 -5 2 -12 4 -7 3 -8 -5 -4
-16 10 -4 26 20 26 10 0 19 5 19 11 0 5 -5 7 -12 3 -6 -4 -8 -3 -5 4 4 5 17 8
30 5 13 -3 17 -1 11 4 -13 9 -15 45 -2 37 5 -3 5 -10 2 -16 -4 -7 -2 -8 4 -4
9 5 9 13 0 29 -11 21 -10 21 7 7 15 -12 17 -12 10 -1 -6 11 -4 13 7 9 9 -4 15
0 15 8 0 9 -7 12 -19 8 -10 -3 -18 0 -18 6 0 6 4 9 9 5 15 -8 50 35 44 53 -4
10 -2 13 5 8 8 -5 10 -2 6 8 -3 9 -11 13 -18 9 -6 -4 -6 0 2 9 10 13 10 17 0
21 -11 4 -10 6 0 6 7 1 10 5 7 11 -3 6 1 7 10 3 10 -3 13 -8 6 -12 -5 -4 -6
-12 -2 -20 6 -9 10 -7 14 8 3 12 1 24 -5 27 -6 4 -5 9 3 14 16 11 21 40 6 41
-7 0 -3 4 8 9 17 7 17 9 3 9 -22 1 -23 14 -4 31 17 13 10 43 -8 33 -6 -3 -6
-1 2 8 16 17 16 32 0 23 -9 -5 -9 -2 1 9 11 14 11 17 0 17 -11 0 -11 2 1 10
13 9 13 10 0 11 -10 0 -8 3 5 9 17 7 17 9 3 9 -11 1 -19 10 -20 24 -3 47 -4
52 -17 49 -7 -1 -10 2 -5 9 5 9 2 10 -9 6 -25 -10 -20 1 7 15 22 12 23 14 8
28 -14 13 -15 12 -8 -5 6 -16 5 -17 -5 -8 -10 10 -9 16 2 29 12 16 12 17 -3
11 -10 -3 -20 -1 -24 5 -5 7 -2 8 6 3 9 -6 10 -2 5 15 -5 16 -4 20 5 15 9 -6
9 -2 0 16 -18 33 -24 38 -16 12 5 -17 2 -24 -16 -33 -22 -10 -22 -10 -4 4 19
15 19 16 0 33 -11 10 -14 14 -8 10 17 -11 6 29 -11 43 -8 6 -11 19 -8 28 6 15
5 16 -12 2 -11 -9 -16 -10 -11 -2 9 15 -6 16 -22 0 -8 -8 -12 -9 -12 -1 0 6 6
14 13 17 10 5 10 7 0 12 -19 9 -16 23 5 19 9 -1 11 0 5 2 -7 3 -13 9 -13 16 0
6 -6 3 -13 -8 -11 -14 -16 -15 -22 -5 -6 9 -4 11 5 5 9 -5 11 -4 6 3 -4 7 -14
12 -22 12 -9 0 -12 -5 -8 -12 4 -7 3 -8 -5 -4 -8 5 -9 12 -2 20 7 8 6 17 -1
26 -8 13 -9 12 -4 -2 3 -12 1 -15 -9 -11 -8 3 -12 9 -9 14 3 5 -7 9 -21 9 -14
0 -24 4 -21 8 3 5 -6 15 -19 22 -13 7 -23 16 -20 19 2 4 -16 7 -41 7 -24 1
-44 -3 -44 -7 0 -5 -4 -9 -8 -9 -5 0 -9 7 -9 15 0 8 4 12 9 9 4 -3 8 0 8 6 0
12 -37 9 -60 -5 -12 -7 -13 -6 -3 6 9 11 8 18 -3 33 -8 11 -14 14 -14 8 0 -7
-7 -12 -16 -12 -9 0 -12 -5 -8 -12 5 -7 3 -8 -7 -2 -8 5 -17 9 -21 9 -3 0 -10
3 -14 7 -3 4 3 6 14 3 12 -2 24 -1 26 3 9 15 -89 8 -102 -8 -8 -8 -11 -9 -7
-2 3 6 2 12 -2 12 -5 0 -15 -6 -22 -12 -10 -11 -11 -10 -6 5 4 10 2 17 -4 17
-6 0 -11 -7 -11 -15 0 -8 -5 -15 -11 -15 -5 0 -8 4 -5 9 3 5 -1 14 -8 20 -12
10 -13 8 -9 -9 4 -16 2 -19 -11 -14 -9 3 -13 11 -9 18 4 7 1 7 -9 -1 -8 -7
-18 -9 -23 -5 -4 4 -2 -4 5 -18 l13 -25 -23 20 -23 20 13 -25 c10 -20 10 -23
0 -13 -11 10 -16 9 -27 -5 -12 -16 -13 -15 -7 3 6 16 5 18 -7 8 -16 -16 -33
-17 -24 -2 4 6 -2 5 -14 -3 -12 -7 -21 -17 -21 -22 0 -4 6 -3 14 3 11 9 16 9
22 0 4 -8 3 -9 -5 -5 -6 4 -14 0 -17 -9 -6 -14 -8 -14 -20 2 -12 16 -13 16
-14 2 0 -19 -26 -32 -43 -22 -7 4 -6 0 1 -10 12 -15 11 -15 -17 -7 -19 5 -29
5 -26 -1 6 -8 -8 -13 -27 -10 -5 0 -7 -2 -7 -7 3 -19 -2 -33 -11 -27 -5 3 -10
0 -10 -8 0 -8 -8 -21 -18 -30 -20 -19 -37 -23 -27 -7 13 22 -3 8 -23 -19 -15
-21 -18 -32 -10 -37 7 -5 8 -3 3 6 -5 9 -4 11 4 6 14 -9 3 -29 -13 -23 -7 3
-13 -4 -13 -14 -1 -11 2 -17 8 -14 14 9 11 -5 -5 -21 -8 -8 -17 -10 -20 -5 -4
5 -1 12 4 14 6 3 5 4 -2 3 -8 -2 -12 -16 -12 -35 1 -20 -3 -30 -10 -28 -6 2
-10 13 -8 23 2 15 1 16 -7 4 -6 -9 -6 -18 0 -26 7 -8 6 -14 -3 -17 -10 -4 -10
-6 0 -6 6 -1 12 -6 12 -12 0 -5 -5 -7 -11 -4 -6 4 -5 -2 2 -13 10 -16 10 -24
1 -35 -7 -8 -10 -23 -6 -33 5 -18 5 -18 -6 -1 -7 10 -9 21 -6 24 3 4 -1 15
-11 25 -20 22 -11 24 11 2 9 -8 16 -11 16 -5 0 5 -11 18 -25 29 -28 22 -33 34
-10 26 8 -4 15 -1 15 6 0 6 -4 9 -9 5 -5 -3 -12 -1 -16 5 -4 6 -11 8 -16 5 -5
-4 -9 -1 -9 5 0 7 9 9 23 5 12 -4 17 -3 11 2 -18 12 -22 69 -6 65 8 -1 11 2 7
8 -11 18 -34 -8 -28 -33 4 -17 1 -16 -11 7 -18 32 -20 46 -6 46 5 0 7 -8 4
-17 -5 -15 -4 -16 5 -3 15 21 14 30 -4 30 -8 0 -15 5 -15 11 0 5 -5 7 -12 3
-7 -4 -8 -3 -4 5 6 9 12 9 24 -1 13 -9 12 -7 -2 9 -10 12 -16 29 -13 38 4 9 1
15 -8 15 -8 0 -15 5 -15 11 0 5 6 7 13 3 9 -5 9 -4 0 6 -6 7 -9 20 -6 29 4 13
3 14 -5 1 -6 -8 -9 -17 -7 -20 2 -4 -2 -7 -10 -7 -9 0 -14 7 -13 16 2 9 -3 15
-10 13 -8 -1 -11 1 -8 6 9 15 15 62 7 57 -5 -2 -14 2 -21 10 -10 12 -10 15 0
15 8 0 11 3 8 6 -4 3 -15 1 -27 -5 -14 -8 -22 -8 -27 1 -4 6 -3 8 3 5 6 -4 16
0 22 7 9 11 9 16 0 22 -8 4 -9 3 -5 -4 4 -7 1 -12 -8 -12 -8 0 -16 4 -18 10
-1 5 -17 10 -34 12 -23 1 -30 6 -26 17 4 10 1 12 -9 6 -8 -5 -7 -1 4 12 14 16
14 20 2 20 -8 0 -12 -4 -9 -9 3 -4 -2 -8 -11 -8 -10 0 -13 5 -9 13 5 8 2 8 -9
-2 -11 -9 -17 -10 -17 -2 0 6 -6 11 -14 11 -8 0 -17 7 -20 16 -3 8 -10 12 -16
9 -9 -6 -14 8 -11 28 1 5 -3 6 -9 2 -6 -3 -8 -10 -5 -15 3 -5 0 -12 -6 -16 -8
-4 -9 -3 -5 4 4 7 1 12 -8 12 -8 0 -16 6 -19 13 -2 6 -8 9 -12 5 -4 -4 -2 -16
6 -25 13 -17 12 -17 -4 -4 -13 10 -16 22 -12 40 6 25 6 25 -8 6 -9 -11 -13
-24 -10 -29 4 -5 1 -6 -5 -2 -8 5 -8 15 -2 34 8 22 8 24 -2 11 -13 -15 -43
-15 -34 0 3 4 -1 8 -9 8 -8 0 -12 -4 -9 -9 3 -4 0 -8 -6 -8 -6 0 -8 -5 -5 -11
4 -6 -2 -5 -13 2 -12 7 -19 16 -17 19 6 10 -43 6 -52 -4 -5 -5 -2 -6 6 -1 10
6 12 4 7 -4 -6 -9 -11 -9 -21 -1 -10 8 -14 7 -18 -2 -4 -9 -6 -8 -6 3 -1 9
-10 15 -26 15 -23 0 -30 -8 -26 -30 1 -5 -4 -4 -12 2 -8 7 -18 8 -22 4 -5 -4
-5 -2 -1 5 3 6 3 14 -2 17 -5 3 -9 -3 -9 -12z m69 -14 c-7 -7 -12 -8 -12 -2 0
14 12 26 19 19 2 -3 -1 -11 -7 -17z m-167 -38 c4 -6 1 -9 -7 -8 -7 2 -12 -3
-10 -10 2 -10 -2 -10 -18 -2 -23 12 -27 22 -6 14 8 -3 17 -1 21 5 8 14 12 14
20 1z m-105 -66 c0 -8 -19 -13 -24 -6 -3 5 1 9 9 9 8 0 15 -2 15 -3z m1595
-52 c-3 -3 -11 0 -18 7 -9 10 -8 11 6 5 10 -3 15 -9 12 -12z m-780 -42 c17
-18 17 -20 2 -14 -9 3 -17 10 -17 16 0 5 -5 6 -12 2 -7 -4 -8 -3 -4 4 9 16 10
15 31 -8z m1050 -29 c3 -5 2 -12 -3 -15 -5 -3 -9 1 -9 9 0 17 3 19 12 6z
m-668 -45 c-10 -8 -17 -16 -15 -19 2 -3 0 -8 -4 -12 -3 -4 -5 1 -4 10 1 9 9
21 17 26 22 14 26 10 6 -5z m-80 -92 c-8 -8 -48 -13 -43 -6 2 4 14 8 26 9 12
1 20 0 17 -3z m948 -34 c3 -5 2 -10 -4 -10 -5 0 -13 5 -16 10 -3 6 -2 10 4 10
5 0 13 -4 16 -10z m-1108 -315 c0 -8 -4 -12 -9 -9 -5 3 -6 10 -3 15 9 13 12
11 12 -6z m3 -51 c0 -2 -9 0 -20 6 -11 6 -20 13 -20 16 0 2 9 0 20 -6 11 -6
20 -13 20 -16z m-1070 -190 c0 -8 -19 -13 -24 -6 -3 5 1 9 9 9 8 0 15 -2 15
-3z m2233 -28 c3 -8 -2 -20 -11 -27 -14 -11 -15 -11 -5 0 6 7 9 20 6 27 -3 8
-3 14 0 14 3 0 7 -6 10 -14z m-2188 -48 c5 4 5 1 1 -6 -5 -9 -12 -9 -27 -2
-10 6 -19 13 -19 16 0 2 8 0 19 -5 10 -6 22 -7 26 -3z m1120 -9 c-4 -5 -12 -9
-18 -8 -9 0 -8 2 1 6 6 2 9 10 6 15 -4 7 -2 8 5 4 6 -4 9 -12 6 -17z m-311
-20 c-9 -10 -21 -16 -26 -13 -12 8 8 31 27 31 13 0 13 -3 -1 -18z m-44 1 c0
-5 -5 -10 -11 -10 -5 0 -7 5 -4 10 3 6 8 10 11 10 2 0 4 -4 4 -10z m-640 -54
c0 -3 -4 -8 -10 -11 -5 -3 -10 -1 -10 4 0 6 5 11 10 11 6 0 10 -2 10 -4z m60
-26 c0 -5 -5 -10 -11 -10 -5 0 -7 5 -4 10 3 6 8 10 11 10 2 0 4 -4 4 -10z
m1884 -52 c-3 -4 -11 -5 -19 -1 -21 7 -19 12 4 10 11 0 18 -5 15 -9z m-307
-151 c0 -8 -6 -14 -13 -14 -7 0 -10 6 -7 14 3 7 8 13 12 13 4 0 8 -6 8 -13z"/>
<path d="M1106 1433 c-6 -14 -5 -15 5 -6 7 7 10 15 7 18 -3 3 -9 -2 -12 -12z"/>
<path d="M941 1383 c-1 -7 8 -17 19 -23 16 -9 18 -8 14 5 -3 8 -10 13 -14 10
-5 -3 -11 1 -13 7 -4 10 -6 10 -6 1z"/>
<path d="M2044 1273 c2 -10 6 -17 10 -16 15 3 16 11 2 22 -12 10 -14 9 -12 -6z"/>
<path d="M156 1242 c-3 -5 1 -9 9 -9 8 0 12 4 9 9 -3 4 -7 8 -9 8 -2 0 -6 -4
-9 -8z"/>
<path d="M1170 1181 c0 -5 5 -13 10 -16 6 -3 10 -2 10 4 0 5 -4 13 -10 16 -5
3 -10 2 -10 -4z"/>
<path d="M1441 1111 c-8 -5 -9 -11 -3 -15 5 -3 12 1 16 9 6 17 6 18 -13 6z"/>
<path d="M1235 1091 c-3 -5 -2 -12 3 -15 5 -3 9 1 9 9 0 17 -3 19 -12 6z"/>
<path d="M65 1001 c-6 -11 9 -23 19 -14 9 9 7 23 -3 23 -6 0 -12 -4 -16 -9z"/>
<path d="M2476 838 c3 -5 10 -6 15 -3 13 9 11 12 -6 12 -8 0 -12 -4 -9 -9z"/>
<path d="M2496 815 c-9 -26 -7 -32 5 -12 6 10 9 21 6 23 -2 3 -7 -2 -11 -11z"/>
<path d="M2506 783 c-6 -14 -5 -15 5 -6 7 7 10 15 7 18 -3 3 -9 -2 -12 -12z"/>
<path d="M1268 573 c7 -3 16 -2 19 1 4 3 -2 6 -13 5 -11 0 -14 -3 -6 -6z"/>
<path d="M113 515 c0 -7 6 -11 14 -8 7 3 13 6 13 8 0 2 -6 5 -13 8 -8 3 -14
-1 -14 -8z"/>
<path d="M1170 485 c-9 -11 -9 -15 -1 -15 7 0 9 -5 5 -12 -4 -7 -3 -8 4 -4 6
4 8 14 5 23 -5 12 -3 14 7 8 9 -5 11 -4 6 3 -9 15 -11 15 -26 -3z"/>
<path d="M1150 440 c0 -5 5 -10 11 -10 5 0 7 5 4 10 -3 6 -8 10 -11 10 -2 0
-4 -4 -4 -10z"/>
<path d="M1126 431 c-3 -5 1 -11 9 -14 9 -4 12 -1 8 9 -6 16 -10 17 -17 5z"/>
<path d="M1380 282 c0 -5 7 -9 15 -9 8 0 15 4 15 9 0 4 -7 8 -15 8 -8 0 -15
-4 -15 -8z"/>
<path d="M846 252 c-2 -4 -1 -14 3 -21 6 -10 10 -9 14 3 6 16 -8 32 -17 18z"/>
<path d="M504 228 c10 -6 22 -6 26 -2 5 5 -3 10 -18 11 -22 1 -24 0 -8 -9z"/>
<path d="M1490 191 c0 -5 5 -13 10 -16 6 -3 10 -2 10 4 0 5 -4 13 -10 16 -5 3
-10 2 -10 -4z"/>
<path d="M2205 151 c-9 -15 15 -25 28 -12 9 9 7 10 -7 5 -13 -5 -17 -4 -12 4
4 7 5 12 2 12 -3 0 -7 -4 -11 -9z"/>
</g>
</svg>
